<?xml version="1.0" encoding="iso-8859-1"?>
<!-- Uploaded to: SVG Repo, www.svgrepo.com, Generator: SVG Repo Mixer Tools -->
<svg version="1.1" id="Layer_1" xmlns="http://www.w3.org/2000/svg" xmlns:xlink="http://www.w3.org/1999/xlink" 
	 viewBox="0 0 508.48 508.48" xml:space="preserve">
<circle style="fill:#4CDBC4;" cx="254.24" cy="254.175" r="217.007"/>
<path style="fill:#324A5E;" d="M296.963,491.865h-30.517v12.546c0,2.034,1.695,4.069,4.069,4.069h41.028v-2.034
	C311.543,498.647,305.101,491.865,296.963,491.865z"/>
<g>
	<path style="fill:#2B3B4E;" d="M211.517,491.865h30.517v12.546c0,2.034-1.695,4.069-4.069,4.069h-41.028v-2.034
		C196.937,498.647,203.379,491.865,211.517,491.865z"/>
	<path style="fill:#2B3B4E;" d="M319.003,106.34c0,0,11.189-1.017,14.241,36.959c3.052,37.976,2.034,122.405-1.356,142.411
		l-24.413-3.73c0,0,3.052-94.601,1.017-108.164C308.153,173.476,300.693,133.126,319.003,106.34z"/>
</g>
<path style="fill:#324A5E;" d="M211.517,491.865h30.177c-2.034-33.568,15.597-174.622,15.597-174.622
	c6.442,6.103,8.816,159.025,9.155,174.622h29.838c-0.339-10.511,1.695-81.717,10.85-152.583
	c9.833-76.97-6.103-114.946-6.103-114.946h-84.768c-22.04,23.057-8.816,114.268-8.816,114.268
	C208.465,358.271,212.534,478.303,211.517,491.865z"/>
<path style="fill:#2B3B4E;" d="M296.285,491.865c-0.339-10.511,1.695-81.717,10.85-152.583c3.052-23.735,3.73-44.079,3.052-60.355
	v-0.339c-1.356-35.942-9.155-53.913-9.155-53.913H257.97v93.584c6.103,14.58,8.477,158.686,8.816,173.944h29.499V491.865z"/>
<ellipse style="fill:#F9B54C;" cx="256.613" cy="88.03" rx="19.327" ry="25.091"/>
<path style="fill:#CED5E0;" d="M256.274,102.271c0,0,5.425,0.339,4.747,9.833l-1.356,55.269l-9.155-2.374l-15.258-48.826
	l-1.356-15.258l10.511-4.069L256.274,102.271z"/>
<path style="fill:#E6E9EE;" d="M255.596,102.271c0,0-5.425,0.339-4.747,9.833l1.356,55.269l9.155-2.374l15.258-48.826l1.356-15.258
	l-10.511-4.069L255.596,102.271z"/>
<path style="fill:#2B3B4E;" d="M235.591,100.914c0-7.799,0.339-12.207,0.678-13.563c-2.034,8.816-42.045,19.327-42.045,19.327
	c12.885,25.43,10.511,67.136,10.511,67.136c5.764,8.138,5.764,44.419,5.764,44.419c-1.356,5.764-2.713,14.919-3.73,25.091
	l16.615,6.103v0.339l24.413,8.816l13.563-20.005v-68.154C252.884,158.896,239.321,114.477,235.591,100.914z"/>
<g>
	<circle style="fill:#E6E9EE;" cx="257.292" cy="174.493" r="2.374"/>
	<circle style="fill:#E6E9EE;" cx="257.292" cy="190.091" r="2.374"/>
	<circle style="fill:#E6E9EE;" cx="257.292" cy="205.688" r="2.374"/>
	<circle style="fill:#E6E9EE;" cx="257.292" cy="219.929" r="2.373"/>
</g>
<path style="fill:#324A5E;" d="M319.681,106.34c0,0-40.011-10.172-42.045-19.327c0,1.356,0.678,6.103,0.678,13.902
	c-4.069,13.902-17.293,57.981-26.109,69.51V237.9l13.563,20.005l24.413-8.816v-0.339l16.615-6.103
	c-1.356-10.172-2.713-19.327-4.069-25.091c0,0,0-36.281,5.764-44.419C309.17,173.476,306.796,131.77,319.681,106.34z"/>
<g>
	<circle style="fill:#E6E9EE;" cx="256.274" cy="174.493" r="2.374"/>
	<circle style="fill:#E6E9EE;" cx="256.274" cy="190.091" r="2.374"/>
	<circle style="fill:#E6E9EE;" cx="256.274" cy="205.688" r="2.374"/>
	<circle style="fill:#E6E9EE;" cx="256.274" cy="219.929" r="2.373"/>
</g>
<g>
	<path style="fill:#FFD05B;" d="M256.274,23.267h-26.448l4.408,44.758c0.339,3.052,1.695,6.103,3.391,8.477l3.73,4.408
		c2.374,3.052,6.103,5.086,10.172,5.764l2.713,0.339c1.356,0.339,3.052,0.339,4.408,0l2.713-0.339
		c4.069-0.678,7.46-2.713,10.172-5.764l3.73-4.408c2.034-2.374,3.391-5.425,3.391-8.477l4.408-44.758
		C283.061,23.267,256.274,23.267,256.274,23.267z"/>
	<path style="fill:#FFD05B;" d="M285.774,49.375c-1.356,3.391-4.408,5.425-6.442,4.408c-2.374-1.017-3.052-4.408-1.695-7.799
		c1.356-3.391,4.408-5.425,6.442-4.408C286.452,42.594,287.13,45.985,285.774,49.375z"/>
	<path style="fill:#FFD05B;" d="M226.775,49.375c1.356,3.391,4.408,5.425,6.442,4.408c2.373-1.017,3.052-4.408,1.695-7.799
		s-4.408-5.425-6.442-4.408C226.436,42.594,225.419,45.985,226.775,49.375z"/>
</g>
<path style="fill:#324A5E;" d="M234.574,13.095c0,0,21.701-32.212,51.539,4.408l-3.052-1.017c0,0,5.425,6.103,0.678,26.787
	c0,0-3.391,0.339-4.408,7.799c0,0-0.678-16.615-5.086-20.005c0,0-28.143,1.695-35.264-4.747c0,0-7.121,11.868-4.069,28.482
	c0,0-5.425-10.511-8.477-16.275c-2.034-4.069-3.052-8.138-3.052-12.885C223.723,19.537,225.758,13.095,234.574,13.095z"/>
<g>
	<path style="fill:#FFFFFF;" d="M275.602,84.978c0,0,11.189,9.494-5.764,28.143c0,0-10.172-11.189-14.241-10.85
		C255.596,102.271,277.636,89.047,275.602,84.978z"/>
	<path style="fill:#FFFFFF;" d="M237.625,84.978c0,0-11.189,9.494,5.764,28.143c0,0,10.172-11.189,14.241-10.85
		C257.631,102.271,235.252,89.047,237.625,84.978z"/>
</g>
<g>
	<path style="fill:#FF7058;" d="M259.665,99.558c1.695-1.356,7.46-5.764,13.902-6.442c1.017,0,1.695,0.678,1.695,1.356
		c0.339,3.391,1.017,11.189,0.339,14.919c0,0.678-1.017,1.356-1.695,1.356c-2.713-0.339-8.816-1.695-14.241-4.747
		c-0.339-0.339-0.678-1.017-0.678-1.356l0.339-4.069C258.987,100.236,259.326,99.897,259.665,99.558z"/>
	<path style="fill:#FF7058;" d="M253.562,99.558c-1.695-1.356-7.46-5.764-13.902-6.442c-1.017,0-1.695,0.678-1.695,1.356
		c-0.339,3.391-1.017,11.189-0.339,14.919c0,0.678,1.017,1.356,1.695,1.356c2.713-0.339,8.816-1.695,14.241-4.747
		c0.339-0.339,0.678-1.017,0.678-1.356l-0.339-4.069C253.901,100.236,253.562,99.897,253.562,99.558z"/>
</g>
<path style="fill:#F1543F;" d="M257.97,106.34h-2.713c-1.017,0-1.695-0.678-1.695-1.695v-3.052c0-1.017,0.678-1.695,1.695-1.695
	h2.713c1.017,0,1.695,0.678,1.695,1.695v3.052C259.665,105.661,258.987,106.34,257.97,106.34z"/>
<path style="fill:#FFD05B;" d="M236.608,249.089c-1.017,0.339-2.374,0.678-3.73,1.017c-11.189,4.069-23.396,4.408-34.924,1.017
	c-8.138-2.374-16.954-3.052-25.43-1.017c-27.804,6.781-44.419,36.62-37.298,66.797s35.603,49.505,63.407,42.723
	c8.816-2.034,16.275-6.442,22.379-12.207c8.477-8.138,19.666-13.224,31.534-14.58c1.356,0,2.713-0.339,3.73-0.678
	c17.293-4.069,23.735-25.091,18.31-48.148C268.82,261.296,253.901,245.02,236.608,249.089z"/>
<polygon style="fill:#F9B54C;" points="222.706,309.444 380.036,268.077 375.967,251.124 216.942,284.014 "/>
<circle style="fill:#324A5E;" cx="215.247" cy="297.916" r="17.632"/>
<rect x="162.332" y="291.096" transform="matrix(-0.9733 0.2294 -0.2294 -0.9733 398.6744 572.4641)" style="fill:#F9B54C;" width="7.459" height="36.619"/>
<path style="fill:#E6E9EE;" d="M408.179,265.365l-41.028,9.494c-1.695,0.339-3.391-0.678-3.73-2.374l-4.408-18.649
	c-0.339-1.695,0.678-3.391,2.374-3.73l41.028-9.494c1.695-0.339,3.391,0.678,3.73,2.374l4.408,18.649
	C410.892,263.33,409.874,265.026,408.179,265.365z"/>
<g>
	<circle style="fill:#ACB3BA;" cx="396.99" cy="250.107" r="3.052"/>
	<circle style="fill:#ACB3BA;" cx="383.766" cy="253.158" r="3.052"/>
	<circle style="fill:#ACB3BA;" cx="370.203" cy="256.21" r="3.052"/>
	<circle style="fill:#ACB3BA;" cx="399.024" cy="259.601" r="3.052"/>
	<circle style="fill:#ACB3BA;" cx="385.8" cy="262.991" r="3.052"/>
	<circle style="fill:#ACB3BA;" cx="372.576" cy="266.043" r="3.052"/>
</g>
<path style="fill:#FF7058;" d="M185.747,292.152v9.155l3.391,10.172l2.034,1.356c0,0,2.034,5.425,14.241,8.477
	c0,0,7.121,2.713,5.764-1.356c0,0,0-4.747-4.747-5.764c0,0-1.356-3.052-4.069-3.052c0,0,1.695-2.713-1.695-6.781
	c0,0,0.339-2.713-0.678-3.73c0,0,3.391-1.356,3.391-2.034c0,0,1.017,12.207,7.46,11.189c0,0,2.374-1.356,0-5.764
	c0,0-1.695-16.615-6.781-18.988C203.718,285.031,193.207,283.675,185.747,292.152z"/>
<path style="fill:#FFFFFF;" d="M183.374,283.336l2.034,9.833c0,0,11.868-10.172,19.327-7.46l-2.034-6.781L183.374,283.336z"/>
<path style="fill:#324A5E;" d="M193.885,106.34c0,0-11.189-1.017-14.241,36.959c-3.052,37.976-2.034,122.405,1.356,142.411
	l24.413-3.73c0,0-3.052-94.601-1.017-108.164C204.396,173.476,212.195,133.126,193.885,106.34z"/>
<path style="fill:#FF7058;" d="M330.192,287.744c2.713-0.678,4.408-3.391,4.069-6.103l-1.017-5.086
	c-0.678-2.713-2.374-4.408-4.069-4.069c-1.695,0.339-2.374,2.713-2.034,5.425c-0.678-2.713-2.374-4.408-4.069-4.069
	c-1.695,0.339-2.374,2.713-2.034,5.425c-0.678-2.713-2.373-4.408-4.069-4.069c-1.695,0.339-2.374,2.713-2.034,5.425
	c-0.678-2.713-2.374-4.408-4.069-4.069l0,0c-1.695,0.339-2.374,2.713-2.034,5.425l1.017,5.086c0.678,2.713,3.391,4.408,6.103,4.069
	L330.192,287.744z"/>
</svg>