<svg version="1.1" id="Layer_1" xmlns="http://www.w3.org/2000/svg" xmlns:xlink="http://www.w3.org/1999/xlink" x="0px" y="0px"
	 width="100%" viewBox="0 0 400 400" enable-background="new 0 0 400 400" xml:space="preserve">
<path fill="#000000" opacity="1.000000" stroke="none" 
	d="
M1.000000,150.468536 
	C13.755400,150.930267 26.527500,150.081802 39.290813,150.339462 
	C44.921207,150.453110 50.559780,150.123596 56.195274,150.036514 
	C59.908722,149.979126 61.390846,148.360748 61.365929,144.452515 
	C61.265850,128.759888 61.468254,113.065414 61.543819,97.371552 
	C61.558147,94.396225 61.597836,91.416298 61.462456,88.445938 
	C61.161694,81.846756 63.280304,79.078911 69.876282,78.950737 
	C74.324959,78.864296 75.711166,77.335556 75.294914,72.931152 
	C74.829453,68.006065 78.127731,64.716873 83.834000,64.786728 
	C88.700653,64.846306 89.781578,62.710003 89.774017,58.449860 
	C89.764595,53.135410 92.186935,50.864841 97.410110,50.673637 
	C100.237183,50.570145 103.073143,50.598343 105.902031,50.677078 
	C113.808411,50.897121 115.903770,53.045063 115.984268,60.935085 
	C115.994141,61.902893 115.426270,62.895290 116.593636,64.391312 
	C125.522865,64.041023 132.330383,66.873268 129.686493,78.825157 
	C133.156677,77.503525 132.633911,75.529022 132.656937,73.826187 
	C132.749603,66.975647 135.046936,64.740570 142.103043,64.732407 
	C160.760483,64.710823 179.419022,64.586639 198.074524,64.769241 
	C202.436798,64.811943 203.997650,63.530731 203.789978,59.063488 
	C203.506546,52.966335 206.133499,50.685474 212.254044,50.685760 
	C226.571701,50.686428 240.890900,50.545742 255.205994,50.731228 
	C259.138885,50.782196 260.683472,49.589272 260.409363,45.592449 
	C260.006042,39.711235 263.199921,35.946186 269.154053,35.989220 
	C273.765259,36.022552 275.519592,34.837887 274.848969,29.974764 
	C274.258606,25.693485 277.277832,22.358631 281.861237,21.901543 
	C285.485870,21.540070 289.230225,21.483576 292.830505,21.967676 
	C299.409485,22.852295 300.151642,24.315378 300.863220,35.551689 
	C309.514221,36.017284 317.450287,37.890186 314.836273,49.232430 
	C316.311310,51.126942 317.945251,50.572044 319.363953,50.672844 
	C327.273224,51.234814 328.437378,51.981274 328.991272,59.634659 
	C329.267426,63.450489 330.382843,64.682785 334.247040,64.877594 
	C341.072174,65.221695 343.156036,67.427437 343.185211,74.244438 
	C343.269806,94.035194 343.036621,113.827065 343.024353,133.618561 
	C343.013641,150.883606 343.209808,168.148865 343.178833,185.413788 
	C343.128235,213.607941 342.936188,241.801849 342.872406,269.996002 
	C342.854004,278.132568 343.015198,286.270905 343.196075,294.406158 
	C343.358002,301.688751 340.789734,304.309387 333.389709,304.263916 
	C327.298462,304.226501 321.206787,304.256256 314.862457,304.256256 
	C314.980927,306.545563 315.173187,308.023590 315.113098,309.491302 
	C314.866394,315.515625 312.007996,318.285217 306.050171,318.300262 
	C296.553314,318.324280 287.054504,318.421326 277.560425,318.259125 
	C273.949341,318.197449 271.934357,318.863190 272.131042,323.152435 
	C272.431976,329.715820 268.636322,333.536011 261.660583,333.037567 
	C252.431015,332.378113 243.095413,333.326721 233.803299,332.783112 
	C230.835876,332.609528 229.339645,333.758606 229.262085,337.141785 
	C229.059296,345.987213 228.009842,346.794067 218.839233,346.878143 
	C210.183945,346.957458 201.528595,347.173401 192.874176,347.133240 
	C189.284531,347.116577 187.459717,348.110596 187.076324,352.119476 
	C186.357590,359.634521 184.240021,361.243927 176.869858,361.238098 
	C172.371887,361.234528 167.872406,361.342194 163.376358,361.256378 
	C159.917801,361.190369 158.067429,362.364044 158.233643,366.189209 
	C158.435776,370.841034 158.297791,375.508331 158.279877,380.168854 
	C158.252502,387.287750 156.195160,389.604156 149.202972,389.620880 
	C126.437256,389.675354 103.671196,389.575531 80.905273,389.573181 
	C78.300400,389.572906 75.613678,389.095581 72.852501,390.469116 
	C73.683136,393.742889 72.624855,397.003510 72.943283,400.649536 
	C66.312355,401.000000 59.624710,401.000000 52.612465,400.620117 
	C52.386368,386.945923 52.498085,373.651672 52.574001,360.357269 
	C52.592758,357.072906 50.513798,356.156708 47.640781,356.126801 
	C41.832218,356.066284 36.014046,356.123962 30.219728,355.788879 
	C26.474466,355.572327 25.150618,357.030121 25.157896,360.643616 
	C25.184988,374.095581 25.064863,387.547852 25.000000,401.000000 
	C19.977907,401.000000 14.955815,401.000000 9.613369,400.614563 
	C10.088957,396.441681 9.536594,392.608734 9.687005,388.799835 
	C9.804911,385.814117 8.168772,384.633820 5.448725,384.429474 
	C3.963443,384.317871 2.482759,384.145142 1.000000,384.000000 
	C1.000000,374.979095 1.000000,365.958221 1.369163,356.377686 
	C9.408895,353.309357 9.649583,353.308502 9.621888,345.476929 
	C9.606904,341.239960 11.516328,340.597595 15.100942,340.617828 
	C30.750856,340.706299 46.402218,340.629395 62.052441,340.522491 
	C67.252716,340.486969 67.979469,341.208649 67.768036,346.609070 
	C67.560371,351.912903 67.380119,357.224579 67.442116,362.529785 
	C67.480652,365.827423 68.076584,368.914246 72.604416,368.892365 
	C87.901253,368.818451 103.198898,368.899841 118.495529,368.806244 
	C122.623924,368.781006 124.287491,365.890839 123.385338,362.418274 
	C122.884224,360.489349 123.325813,358.541290 122.611366,356.444153 
	C115.061928,355.156952 107.430450,356.124023 99.883949,355.515686 
	C97.421494,355.317200 94.742683,355.771271 94.789398,351.866852 
	C94.905586,342.155823 94.839172,342.154602 85.416779,341.451141 
	C85.253151,341.438873 85.084846,341.499115 84.919891,341.493195 
	C81.773224,341.379883 80.209259,340.345703 80.498260,336.606293 
	C81.125069,328.496185 79.976921,327.486603 71.950905,327.234711 
	C71.122391,327.208740 70.254860,327.298218 69.474510,327.083282 
	C67.393288,326.510132 66.108376,325.472168 66.130539,322.892303 
	C66.212074,313.401733 65.694542,312.965607 56.327610,313.542389 
	C53.664639,313.706360 51.552444,313.067810 51.527393,310.049500 
	C51.428791,298.169586 51.441341,286.288361 51.480030,274.407837 
	C51.531616,258.566132 51.721970,242.724625 51.711277,226.883118 
	C51.701244,212.020859 51.150612,197.150238 51.505615,182.299240 
	C51.795048,170.191528 48.966213,171.150467 40.409744,171.128967 
	C27.273136,171.095963 14.136579,171.043945 1.000000,171.000000 
	C1.000000,164.312363 1.000000,157.624710 1.000000,150.468536 
M153.271301,189.502426 
	C153.255859,217.310501 153.233261,245.118561 153.227371,272.926636 
	C153.223114,293.078766 153.266464,313.230896 153.235001,333.382965 
	C153.224243,340.268036 153.537918,340.646881 160.575287,340.631134 
	C164.074127,340.623291 167.573318,340.670563 171.071777,340.635498 
	C180.170349,340.544312 180.262695,340.529144 180.016663,331.369080 
	C179.917252,327.668121 181.018433,325.774078 185.070801,325.848541 
	C195.028488,326.031494 204.991669,325.900055 214.950302,326.050354 
	C222.512512,326.164459 223.058350,325.731812 223.157974,317.976990 
	C223.166519,317.313232 223.343979,316.630463 223.238861,315.990021 
	C222.724640,312.857178 224.150665,311.868317 227.139725,311.907867 
	C236.784470,312.035431 246.432999,311.900208 256.076935,312.058197 
	C265.653809,312.215057 265.855133,312.313568 265.698059,302.907654 
	C265.625092,298.539307 267.369049,297.623383 271.339417,297.691772 
	C283.752533,297.905640 296.171631,297.770294 308.700500,297.770294 
	C308.700500,294.365173 308.819611,291.203766 308.667267,288.055511 
	C308.512543,284.858643 309.782501,283.495422 313.030731,283.672668 
	C316.143768,283.842529 319.273346,283.709320 323.015137,283.709320 
	C323.015137,274.859955 323.027313,266.587341 323.013031,258.314819 
	C322.952576,223.262360 322.868317,188.209915 322.825897,153.157425 
	C322.806396,137.044464 322.903442,120.931206 322.833832,104.818573 
	C322.825317,102.846191 323.458313,99.785568 320.316925,99.709854 
	C316.780640,99.624634 313.076019,98.641533 309.164948,100.573883 
	C309.164948,104.748421 309.164948,109.028893 309.164948,113.477905 
	C307.910339,113.595413 307.115753,113.729805 306.320282,113.735481 
	C290.964844,113.844963 275.601074,114.269211 260.257538,113.886543 
	C253.412964,113.715851 252.433762,113.613510 252.762802,122.393456 
	C252.954422,127.506577 251.312607,128.240997 246.987106,128.208969 
	C227.675644,128.066025 208.362427,128.162918 189.049850,128.162354 
	C182.045456,128.162155 181.310089,128.870819 181.395554,135.771667 
	C181.405807,136.599579 181.517044,137.431259 181.642685,138.251831 
	C182.115372,141.339127 180.781815,142.395248 177.724060,142.309738 
	C172.068802,142.151566 166.404282,142.242981 160.745087,142.328415 
	C154.462158,142.423264 153.248413,143.628128 153.228256,150.033157 
	C153.187912,162.855835 153.250000,175.678864 153.271301,189.502426 
M82.206223,282.499969 
	C82.195663,290.162445 82.371658,297.831421 82.106247,305.485046 
	C81.940720,310.258514 83.857254,312.083801 88.531685,312.027008 
	C96.153023,311.934448 96.386002,312.084747 96.062416,319.832153 
	C95.855980,324.774597 98.045532,326.381531 102.546890,326.211731 
	C107.704765,326.017151 112.867676,325.933289 118.029251,325.865570 
	C124.199577,325.784546 125.253769,326.974396 124.764778,333.273224 
	C124.270279,339.643036 125.262390,340.742950 131.424240,340.656067 
	C136.817413,340.580048 137.735123,339.502502 137.736710,332.989990 
	C137.750961,274.696320 137.752380,216.402649 137.761124,158.108978 
	C137.763718,140.787796 137.815582,123.466438 137.737747,106.145645 
	C137.728104,103.998062 138.523056,101.336327 135.453201,100.181816 
	C129.226242,97.839989 125.131065,100.260109 124.496788,106.763657 
	C124.416603,107.585869 124.330826,108.460098 124.516441,109.246811 
	C125.457268,113.234337 123.635391,114.080299 119.982948,113.966705 
	C113.370026,113.761063 106.741737,113.946198 100.122490,114.089767 
	C96.681046,114.164413 94.927551,113.171654 95.062569,109.222801 
	C95.283882,102.750084 94.875893,96.258369 94.897102,89.775208 
	C94.907555,86.579796 93.543823,85.414917 90.391769,85.278282 
	C82.828880,84.950470 82.101578,85.510612 82.110405,93.139153 
	C82.126411,106.962723 82.172905,120.786263 82.177734,134.609833 
	C82.194817,183.573074 82.199684,232.536301 82.206223,282.499969 
M153.242996,115.453636 
	C153.235123,117.117722 153.387253,118.801125 153.189117,120.442238 
	C152.611938,125.222527 154.677750,127.171524 159.411438,126.875511 
	C162.893066,126.657799 166.396194,126.764297 169.889755,126.760216 
	C179.506470,126.748985 179.682648,126.765671 180.200302,117.303513 
	C180.384750,113.932060 181.276276,112.598648 184.805496,112.648476 
	C197.116730,112.822304 209.431534,112.746658 221.744980,112.756378 
	C231.507584,112.764084 241.270187,112.757935 251.082825,112.757935 
	C252.302353,107.779282 250.691986,103.210182 252.183609,98.639061 
	C266.111481,98.639061 279.873383,98.639061 293.568237,98.639061 
	C295.005707,95.647797 294.049805,92.779884 294.402374,90.044624 
	C294.915588,86.062584 292.975861,85.133278 289.482513,85.228493 
	C283.995300,85.378044 278.500763,85.248413 273.009369,85.259026 
	C265.950531,85.272659 265.950562,85.282036 265.837738,78.083321 
	C265.731354,71.296257 265.613678,71.228249 258.736664,71.238083 
	C244.944092,71.257812 231.151398,71.245766 217.358902,71.200897 
	C210.148682,71.177429 210.096512,71.184326 210.070175,78.302673 
	C210.044373,85.276321 210.044388,85.261040 202.845596,85.257294 
	C183.708771,85.247322 164.571869,85.227631 145.435211,85.283287 
	C143.218460,85.289734 140.613297,84.718315 139.390427,87.569214 
	C136.524918,94.249680 139.573517,98.778824 146.765900,98.518669 
	C146.932251,98.512650 147.100311,98.514397 147.264374,98.490547 
	C151.506363,97.873779 153.531311,99.565857 153.313324,103.985863 
	C153.141342,107.472900 153.259888,110.974266 153.242996,115.453636 
M315.467010,84.323845 
	C317.740448,84.134743 320.013885,83.945641 322.107208,83.771523 
	C323.260193,81.554108 322.727570,79.506096 322.773560,77.558907 
	C322.920044,71.357056 322.373291,70.917572 315.961517,71.025612 
	C308.462433,71.151978 308.367279,71.057632 308.611176,63.738449 
	C308.837097,56.959488 308.449951,56.574158 301.973572,56.665852 
	C295.492828,56.757599 293.863800,58.276894 294.422577,49.274872 
	C294.553558,47.165043 295.201447,44.380970 292.519806,43.028450 
	C286.600342,40.042870 281.196655,43.457375 281.113953,50.157757 
	C281.030823,56.890270 281.030853,56.890263 274.252289,56.923607 
	C266.864929,56.959942 266.815857,56.958832 266.645538,64.458565 
	C266.568451,67.851257 267.625641,70.165833 271.782562,70.025871 
	C277.908447,69.819611 284.049652,70.101830 290.179474,69.963051 
	C293.673523,69.883949 295.595459,71.084488 295.416321,74.791832 
	C295.360199,75.954155 295.459656,77.137177 295.280212,78.278061 
	C294.526398,83.070854 297.069550,84.429199 301.282684,84.327667 
	C305.753448,84.219955 310.227905,84.264534 315.467010,84.323845 
M118.307693,85.297546 
	C115.701683,85.734795 111.947624,83.805748 110.807777,87.225082 
	C109.762634,90.360313 108.959755,94.445198 111.195015,97.273781 
	C113.186562,99.793945 116.709038,98.555099 119.640884,98.163795 
	C124.985550,97.450455 123.421219,93.315948 123.704933,90.073959 
	C123.995743,86.750893 122.698677,84.986794 118.307693,85.297546 
M105.074791,71.277756 
	C103.255684,71.275558 101.434227,71.215950 99.618263,71.290413 
	C98.306282,71.344215 97.021652,71.451797 96.381874,73.017799 
	C93.394142,80.330917 97.032883,85.026840 104.908195,84.116447 
	C107.297958,83.840195 109.672089,83.251495 109.008072,80.497063 
	C108.254341,77.370399 112.129204,72.477707 105.074791,71.277756 
z"/>
<path fill="#000000" opacity="1.000000" stroke="none" 
	d="
M295.331177,256.400726 
	C295.260620,259.228363 294.744904,262.132996 295.217926,264.866577 
	C296.044098,269.641144 293.716705,270.652863 289.726349,270.626190 
	C279.299164,270.556519 268.867340,270.754944 258.445679,270.503448 
	C254.584412,270.410248 253.056885,271.564117 252.948517,275.501038 
	C252.687927,284.966522 252.553314,284.962616 242.975433,284.841492 
	C234.370453,284.732635 225.765686,284.566620 217.160416,284.534760 
	C210.691803,284.510773 210.201797,285.076294 210.036652,291.625671 
	C209.850937,298.989838 209.851028,299.010040 202.220703,299.046021 
	C196.562210,299.072693 190.901352,298.943573 185.245590,299.067596 
	C182.015274,299.138397 180.491058,298.157990 180.192551,294.593414 
	C179.286636,283.775757 179.134171,283.775085 189.906738,283.686401 
	C194.237015,283.650787 198.572021,283.572571 202.897293,283.726868 
	C206.904526,283.869873 208.822678,282.144165 208.693237,278.130310 
	C208.661087,277.133301 208.717987,276.133636 208.724319,275.135132 
	C208.762833,269.067749 208.879898,269.284729 214.971359,269.407562 
	C225.415527,269.618225 235.868881,269.354675 246.318481,269.323578 
	C250.429901,269.311340 251.557892,267.170563 251.574188,263.283997 
	C251.607391,255.369781 251.801346,255.186981 259.641388,255.107208 
	C271.070679,254.990906 282.509399,254.483429 294.445801,255.707901 
	C295.083130,256.155640 295.207153,256.278198 295.331177,256.400726 
z"/>
<path fill="#000000" opacity="1.000000" stroke="none" 
	d="
M201.948624,155.419312 
	C209.369308,154.819290 210.140045,155.530258 210.099564,162.591782 
	C210.092865,163.758026 209.925644,164.941605 210.070389,166.087143 
	C210.589249,170.193985 208.536957,171.481873 204.809464,171.133392 
	C203.819748,171.040878 202.812592,171.154434 201.815353,171.119446 
	C196.497604,170.932907 196.219757,174.567596 196.023148,178.492996 
	C195.806320,182.822250 198.114838,183.925491 201.902023,183.867798 
	C204.449387,183.829010 207.880569,182.550400 209.220871,185.431824 
	C210.996384,189.248795 210.224533,193.586746 209.597321,197.698547 
	C209.428009,198.808594 208.332703,199.145615 207.267700,199.172607 
	C206.102493,199.202148 204.936371,199.199371 203.770630,199.204163 
	C195.083603,199.239883 194.597702,200.136841 194.808105,190.748932 
	C194.885818,187.281265 194.222488,184.781876 189.943619,185.118988 
	C186.373779,185.400253 181.688995,183.632141 181.739822,189.978348 
	C181.742462,190.306168 181.683044,190.653656 181.567902,190.960220 
	C180.593491,193.555099 183.130753,197.688110 180.195755,198.728302 
	C176.791031,199.934967 172.652512,199.140213 168.836197,199.052811 
	C168.147720,199.037048 167.009705,198.354645 166.872803,197.788208 
	C165.853546,193.570419 165.918564,189.209946 166.736771,185.042633 
	C167.147202,182.952194 169.883896,183.795242 171.617783,183.789627 
	C180.246460,183.761795 180.654510,183.464172 180.112579,174.723206 
	C179.887680,171.095703 181.019043,169.282715 184.838120,169.726715 
	C185.332397,169.784180 185.837082,169.763046 186.336853,169.760559 
	C193.697983,169.723923 194.660583,168.768005 194.723846,161.439423 
	C194.780914,154.831802 195.009171,154.630127 201.948624,155.419312 
z"/>
<path fill="#000000" opacity="1.000000" stroke="none" 
	d="
M237.383087,232.030273 
	C237.879166,227.518631 234.937317,227.777496 232.211884,227.667572 
	C222.752182,227.286102 222.743301,227.272873 223.251358,217.655075 
	C223.328491,216.194763 223.539505,214.741516 223.675598,213.412048 
	C225.418594,212.361679 227.115738,212.682465 228.751877,212.681595 
	C236.775284,212.677322 237.292831,212.193253 237.389801,204.365387 
	C237.467880,198.063248 237.467697,198.075684 243.980164,198.167847 
	C244.970108,198.181839 245.972366,198.081436 246.952133,197.927200 
	C251.039108,197.283768 252.893036,199.189606 252.895294,203.137787 
	C252.902130,215.049789 252.884155,226.961838 252.845276,238.873749 
	C252.843170,239.517624 252.781525,240.460342 252.376266,240.757370 
	C248.526825,243.578751 244.112274,241.800140 239.978409,241.915329 
	C237.628189,241.980820 237.254776,239.490143 237.403183,237.306107 
	C237.514877,235.662369 237.399292,234.003174 237.383087,232.030273 
z"/>
<path fill="#000000" opacity="1.000000" stroke="none" 
	d="
M295.318451,142.530960 
	C295.316650,144.525391 295.352600,146.520721 295.305908,148.514099 
	C295.170746,154.288239 296.410889,155.540939 302.263763,155.463898 
	C309.319427,155.371002 309.383392,155.449829 309.257355,162.719467 
	C309.214630,165.184525 309.250549,167.650955 309.250549,170.889954 
	C305.041046,170.889954 301.310760,170.895264 297.580505,170.887848 
	C295.520233,170.883759 294.564056,169.711639 294.469604,167.775238 
	C294.413055,166.615891 294.529449,165.449219 294.527710,164.285889 
	C294.516174,156.618912 291.501923,154.416382 284.021942,156.435593 
	C281.181702,157.202316 281.303040,159.351700 281.164398,161.539658 
	C280.518097,171.738693 280.511841,171.620880 269.983948,170.909302 
	C267.216034,170.722244 266.028320,169.681137 265.877136,167.100662 
	C265.838226,166.436478 265.847595,165.769485 265.835052,165.103775 
	C265.669891,156.354828 265.658020,156.232162 274.177124,155.407242 
	C278.185852,155.019073 279.977844,153.544510 279.919250,149.195877 
	C279.818848,141.743195 280.084015,141.746277 287.489685,141.491806 
	C289.478851,141.423447 291.466187,141.301224 294.062988,141.429626 
	C294.887238,141.947357 295.102844,142.239151 295.318451,142.530960 
z"/>
<path fill="#000000" opacity="1.000000" stroke="none" 
	d="
M295.758240,142.486679 
	C295.102844,142.239151 294.887238,141.947357 294.500092,141.456589 
	C294.403198,137.470596 294.461090,133.683090 294.566010,129.896896 
	C294.588135,129.097153 294.782410,128.302185 294.913177,127.395370 
	C298.590759,126.240601 302.227417,126.953583 305.804108,126.936440 
	C307.914185,126.926331 309.133820,128.284164 309.187256,130.440628 
	C309.260956,133.414124 309.260773,136.389709 309.270111,139.364456 
	C309.276733,141.473969 308.097351,142.212738 306.106476,142.218445 
	C302.803467,142.227905 299.500824,142.361237 295.758240,142.486679 
z"/>
<path fill="#000000" opacity="1.000000" stroke="none" 
	d="
M294.769623,255.852798 
	C294.572876,251.873001 294.559174,248.073502 294.564453,244.274048 
	C294.565369,243.617783 294.381622,242.676651 294.732605,242.349869 
	C297.982971,239.323807 301.964630,241.795135 305.574219,241.083817 
	C307.233307,240.756897 308.873932,241.571854 309.136932,243.701050 
	C309.197876,244.194443 309.279297,244.690613 309.279175,245.185471 
	C309.275635,258.492859 310.442383,255.872940 299.680237,256.126160 
	C298.520508,256.153473 297.362152,256.239990 295.767181,256.349915 
	C295.207153,256.278198 295.083130,256.155640 294.769623,255.852798 
z"/>
</svg>