<?xml version="1.0" ?>
<!-- Uploaded to: SVG Repo, www.svgrepo.com, Generator: SVG Repo Mixer Tools -->
<svg width="800px" height="800px" viewBox="0 0 72 72" xmlns="http://www.w3.org/2000/svg">
<g fill="none" fill-rule="evenodd">
<path d="M36,72 L36,72 C55.882251,72 72,55.882251 72,36 L72,36 C72,16.117749 55.882251,-3.65231026e-15 36,0 L36,0 C16.117749,3.65231026e-15 -2.4348735e-15,16.117749 0,36 L0,36 C2.4348735e-15,55.882251 16.117749,72 36,72 Z" fill="#FF4300"/>
<path d="M12,44.1526084 C12,44.7566641 12.2159449,45.213396 12.6477431,45.5229896 C13.0795872,45.8325368 13.5411819,45.9419854 14.0325733,45.8514281 C14.4941681,45.7608243 14.8180397,45.5947021 15.0042338,45.3531076 C15.1903363,45.1115132 15.2834334,44.7113158 15.2834334,44.1526084 L15.2834334,37.583839 C15.2834334,37.1156889 15.1233742,36.7192976 14.80321,36.3946653 C14.4830916,36.0699865 14.0922122,35.9076703 13.6305716,35.9076703 C13.1838522,35.9076703 12.8004333,36.0699865 12.4802691,36.3946653 C12.160105,36.7192976 12,37.1156889 12,37.583839 L12,44.1526084 L12,44.1526084 Z M17.1372732,46.9613236 C17.1372732,47.3993034 17.2899175,47.7276955 17.5951605,47.9466854 C17.9004493,48.1656753 18.2913288,48.2751239 18.767799,48.2751239 C19.2591903,48.2751239 19.6574846,48.1656289 19.9627734,47.9466854 C20.2680164,47.7277419 20.4206608,47.3993034 20.4206608,46.9613236 L20.4206608,31.6492957 C20.4206608,31.1962771 20.2605558,30.8074052 19.9404374,30.4827728 C19.6202732,30.1581405 19.2293938,29.9957779 18.767799,29.9957779 C18.3210796,29.9957779 17.9376149,30.1581405 17.6174965,30.4827728 C17.2973323,30.8074516 17.1372732,31.1962771 17.1372732,31.6492957 L17.1372732,46.9613236 L17.1372732,46.9613236 Z M22.2522103,47.6861533 C22.2522103,48.1240867 22.4085621,48.4525252 22.7212657,48.6715151 C23.0339693,48.8904586 23.4360168,48.9999536 23.9274539,48.9999536 C24.4039241,48.9999536 24.7948035,48.8904586 25.1000465,48.6715151 C25.4053353,48.4525252 25.5579797,48.1240867 25.5579797,47.6861533 L25.5579797,33.7105302 C25.5579797,33.2424265 25.3978747,32.8422291 25.0777563,32.510031 C24.7575922,32.1778328 24.3741733,32.011757 23.9274539,32.011757 C23.4658133,32.011757 23.0712264,32.1778328 22.7436474,32.510031 C22.4160685,32.8422291 22.2522561,33.2424265 22.2522561,33.7105302 L22.2522561,47.6861533 L22.2522103,47.6861533 Z M27.3894835,47.7541061 C27.3894835,48.5846711 27.9404222,48.9999536 29.0423453,48.9999536 C30.1442226,48.9999536 30.6951613,48.5846711 30.6951613,47.7541061 L30.6951613,25.1031773 C30.6951613,23.8347252 30.3154498,23.1174613 29.5560268,22.951339 C29.0646355,22.8305186 28.5806589,22.9739899 28.1041888,23.3817067 C27.6276728,23.7894234 27.3894377,24.363216 27.3894377,25.1031773 L27.3894377,47.7541061 L27.3894835,47.7541061 Z M32.6161463,48.410983 L32.6161463,23.7667724 C32.6161463,22.9815557 32.8469208,22.513452 33.3085614,22.3624149 C34.3062194,22.1208204 35.2964627,22 36.2792454,22 C38.5574686,22 40.6794315,22.5436223 42.6449511,23.6308669 C44.6105165,24.7181115 46.2001236,26.2017473 47.4136808,28.0817744 C48.6272838,29.9618479 49.3308668,32.0343615 49.52443,34.2995008 C50.4327442,33.9068692 51.4006057,33.7105766 52.4280603,33.7105766 C54.5127661,33.7105766 56.2959363,34.4580573 57.7775252,35.9530186 C59.2591598,37.4480263 60,39.244969 60,41.3439861 C60,43.4580882 59.2591598,45.2625967 57.7775252,46.757558 C56.2959363,48.2525193 54.5202267,49 52.4503963,49 L33.0181022,48.9773491 C32.8840406,48.9320472 32.7835287,48.8489629 32.7165208,48.7281889 C32.6495129,48.6074148 32.6161463,48.5015867 32.6161463,48.410983 L32.6161463,48.410983 L32.6161463,48.410983 Z" fill="#FFF"/>
</g>
</svg>